<?xml version="1.0" encoding="UTF-8"?>
<svg version="1.1" viewBox="0 0 2048 599" width="564" height="165" xmlns="http://www.w3.org/2000/svg">
<path transform="translate(813,138)" d="m0 0h19l19 2 21 5 6 2h6l2-5 19-1h27l30 1 1 1v117h82l1-111 1-7 25-1h17l36 1v78l3-3 10-15 11-13 10-10 13-10 13-8 16-8 21-7 15-3 11-1h24l16 2 19 5 15 6 17 9 17 12 15 14 11 13 11 17 5 10 3-4 6-11 8-12 12-14 5-5 12-11 15-10 17-9 24-8 15-3 11-1h23l17 2 18 5 16 6 17 9 14 10 10 8-1-5 1-34 1-1h221l1 2v66l-1 1-74 1-1 233-1 1h-71l-1-16v-62l-1-156h-48l8 15 6 13 6 20 3 19 1 19-2 21-5 21-6 16-10 19-10 14-12 14-11 10-13 9-14 8-15 7-15 5-20 4-10 1h-21l-17-2-19-5-13-5-19-10-14-10-12-11-11-11-9-12-9-14-4-8-3 3-6 12-12 17-12 13-11 10-18 12-16 8-16 6-19 5-17 2h-21l-17-2-19-5-15-6-17-9-15-11-12-11-9-9-10-13-7-11v-2h-2l1 9-1 68-1 1h-77l-1-13-1-105h-81l-1 117-1 1h-77l-1-12v-9l-15 11-16 8-15 5-15 3-11 1h-18l-18-2-21-4-18-6-14-6-5-4 1-7 17-37 7-14 5-1 24 7 18 4h28l14-4 6-4 3-3 1-4v-8l-3-7-6-7-19-12-25-14-19-11-16-11-14-12-10-11-7-10-6-15-2-10v-22l3-17 5-13 6-11 11-12 10-8 12-7 18-7 20-4zm70 54-6 18-3 6-10-3-19-6-15-3-10-1h-11l-10 2-10 5-4 6-1 3v11l4 8 10 9 22 13 28 15 18 11 12 9 5 4 2-1v-106zm364 20-12 3-16 7-14 11-10 11-9 15-6 18-1 6v24l4 16 6 14 8 11 5 6 14 11 16 8 15 4h25l12-3 17-8 14-11 8-9 8-13 5-13 3-15v-24l-4-15-4-10-9-14-9-10-14-10-15-7-12-3zm278 0-12 3-12 5-11 7-12 11-8 10-8 15-4 13-2 21 2 16 5 16 7 13 11 13 13 10 16 8 15 4h24l12-3 12-5 11-7 10-9 9-10 6-10 6-18 2-10v-23l-3-13-5-12-7-12-9-10-7-7-13-8-14-6-9-2z" fill="#303031"/>
<path transform="translate(143,140)" d="m0 0h55l4 4 10 27 21 57 18 49 4 9 72-144 4-2 5 8 13 29 15 34 14 32 15 35 4 8 2-3 31-74 15-36 11-26 4-6 59-1h176l1 1v69l-2 2h-102v47h86l1 1v70l-1 1-66 1h-20v47h103l1 1v69l-7 2h-169l-3-1-1-254-11 25-20 48-17 40-10 24-20 47-10 24-21 49-4 1-4-6-11-23-16-34-19-40-7-16-8-16-11-24-3-2-1 6-12 25-13 28-19 40-28 60-4 2-4-5-12-30-14-36-25-63-11-28-22-55-13-33-11-28-12-31v-4z" fill="#DE5344"/>
</svg>
